<?xml version="1.0" encoding="UTF-8"?>
<svg width="211px" height="50px" viewBox="0 0 211 50" version="1.1" xmlns="http://www.w3.org/2000/svg" xmlns:xlink="http://www.w3.org/1999/xlink">
    <!-- Generator: Sketch 43.1 (39012) - http://www.bohemiancoding.com/sketch -->
    <title>logo</title>
    <desc>Created with Sketch.</desc>
    <defs></defs>
    <g id="Page-1" stroke="none" stroke-width="1" fill="none" fill-rule="evenodd">
        <g id="01-home-1440-hovers" transform="translate(-40.000000, -40.000000)" fill="#d1d2d8">
            <g id="Group-4">
                <g id="Group-14" transform="translate(40.000000, 34.000000)">
                    <g id="Group-10" transform="translate(0.000000, 6.000000)">
                        <path d="M0,11.6912138 C0,5.23433472 5.22619435,0 11.6866838,0 L38.7013759,0 C45.1557532,0 50.3880597,5.23285453 50.3880597,11.6912138 L50.3880597,38.3087862 C50.3880597,44.7656653 45.1618653,50 38.7013759,50 L11.6866838,50 C5.23230655,50 0,44.7671455 0,38.3087862 L0,11.6912138 Z M25.2297295,9.54651056 C21.0919792,9.54651056 16.9077363,10.0712798 16.8960485,12.9285562 C16.8843608,15.7858327 21.3346858,16.616176 21.3346858,20.6918465 C21.3346858,22.6679059 20.7281657,25.0139778 18.5300229,27.1943278 C16.3318801,29.3746779 14.0439674,32.6610159 14.0439674,34.929087 C14.0439674,39.3317647 16.5780758,41.1844983 18.5905196,41.1941336 C20.6029633,41.2037689 21.8865238,38.5639006 25.2003303,38.5394816 C28.5141367,38.5150625 29.4302633,41.1423238 32.0745004,41.114895 C34.7187374,41.0874662 36.3674708,38.1518502 36.3186653,34.929087 C36.2698598,31.7063239 34.1821415,29.6340867 31.8636874,27.1943278 C29.5452334,24.754569 29.0493979,22.453798 29.0493979,20.6918465 C29.0493979,16.5710986 33.5029473,15.7693051 33.5029473,12.9285562 C33.5029473,10.0878073 29.3674797,9.54651056 25.2297295,9.54651056 Z M25.1940299,26.5480219 C27.0745502,26.5631132 28.7211335,27.3710369 28.7226717,28.568463 C28.7242098,29.7658891 27.0556181,32.9962835 25.191741,32.9803075 C23.3278638,32.9643315 21.6589971,29.7673134 21.6608106,28.568463 C21.6626241,27.3696126 23.3135095,26.5329306 25.1940299,26.5480219 Z M15.3800764,23.8372093 C16.9171188,23.8372093 18.1631378,22.6007864 18.1631378,21.0755814 C18.1631378,19.5503764 16.9171188,18.3139535 15.3800764,18.3139535 C13.843034,18.3139535 12.5970149,19.5503764 12.5970149,21.0755814 C12.5970149,22.6007864 13.843034,23.8372093 15.3800764,23.8372093 Z M35.0079833,23.8372093 C36.5450257,23.8372093 37.7910448,22.6007864 37.7910448,21.0755814 C37.7910448,19.5503764 36.5450257,18.3139535 35.0079833,18.3139535 C33.4709409,18.3139535 32.2249219,19.5503764 32.2249219,21.0755814 C32.2249219,22.6007864 33.4709409,23.8372093 35.0079833,23.8372093 Z M70.1440907,38.28125 C68.7984221,38.28125 67.7089552,37.2099576 67.7089552,35.8868749 L67.7089552,20.4070323 C67.7089552,19.0838694 68.7984221,18.0126572 70.1440907,18.0126572 C71.3087772,18.0126572 72.2858207,18.8195578 72.5221209,19.8887634 C73.4819435,18.8195578 74.8912158,17.9012499 77.0248227,17.9012499 C81.0644279,17.9012499 84.2169121,21.1034888 84.2169121,25.9474611 C84.2169121,30.754913 81.1004944,33.9379686 77.0248227,33.9379686 C75.1786102,33.9379686 73.7734806,33.3196097 72.5915732,32.162113 C72.5784138,33.3196097 72.5792261,35.8868749 72.5792261,35.8868749 C72.5792261,37.2099576 71.4897593,38.28125 70.1440907,38.28125 Z M72.5226083,25.9474611 C72.5226083,28.1987243 73.9998707,29.7895699 75.9204906,29.7895699 C77.8576003,29.7895699 79.3466412,28.2105232 79.3466412,25.9474611 L79.3466412,25.8917574 C79.3466412,23.6467548 77.8479339,22.0496486 75.9204906,22.0496486 C73.9998707,22.0496486 72.5226083,23.6404942 72.5226083,25.8917574 L72.5226083,25.9474611 Z M100.158609,18.0126572 C101.504278,18.0126572 102.593745,19.0838694 102.593745,20.4070323 L102.593745,31.4322665 C102.593745,32.7553491 101.504278,33.8266416 100.158609,33.8266416 C99.0107377,33.8266416 98.0210223,33.007942 97.783666,31.9641804 C96.7832281,33.062843 95.5557502,33.9379686 93.5610479,33.9379686 C90.1674708,33.9379686 88.1245174,31.7194534 88.1245174,28.1191018 L88.1245174,20.4070323 C88.1245174,19.0838694 89.2139842,18.0126572 90.5596529,18.0126572 C91.9052403,18.0126572 92.9947883,19.0838694 92.9947883,20.4070323 L92.9947883,26.7826952 C92.9947883,28.6085557 93.8114823,29.5389836 95.3166881,29.5389836 C96.8461007,29.5389836 97.723474,28.5847973 97.723474,26.7826952 L97.723474,20.4070323 C97.723474,19.0838694 98.8130221,18.0126572 100.158609,18.0126572 Z M109.729298,38.28125 C108.383629,38.28125 107.294162,37.2099576 107.294162,35.8868749 L107.294162,20.4070323 C107.294162,19.0838694 108.383629,18.0126572 109.729298,18.0126572 C110.892766,18.0126572 111.864692,18.8134577 112.106597,19.8854725 C113.091439,18.8134577 114.476423,17.9012499 116.609949,17.9012499 C120.649635,17.9012499 123.802119,21.1034888 123.802119,25.9474611 C123.802119,30.754913 120.685701,33.9379686 116.609949,33.9379686 C114.759268,33.9379686 113.351783,33.3165596 112.168007,32.1535247 C112.164433,32.6660948 112.164433,35.8868749 112.164433,35.8868749 C112.164433,37.2099576 111.074966,38.28125 109.729298,38.28125 Z M112.107815,25.9474611 C112.107815,28.1987243 113.585078,29.7895699 115.505698,29.7895699 C117.442807,29.7895699 118.931848,28.2105232 118.931848,25.9474611 L118.931848,25.8917574 C118.931848,23.6467548 117.433141,22.0496486 115.505698,22.0496486 C113.585078,22.0496486 112.107815,23.6404942 112.107815,25.8917574 L112.107815,25.9474611 Z M139.191691,29.344101 C139.191691,32.2177364 136.827795,34.0771476 133.556876,34.0771476 C131.557544,34.0771476 129.345468,33.3627921 127.675201,32.1897241 C127.334438,31.9503748 127.1009,31.5348447 127.1009,31.0702728 C127.1009,30.3323195 127.722153,29.7339465 128.488403,29.7339465 C128.784976,29.7339465 129.074239,29.821435 129.26505,29.9731352 C130.715587,30.9419296 132.191388,31.4322665 133.670112,31.4322665 C135.246395,31.4322665 136.275182,30.6735246 136.275182,29.5668355 L136.275182,29.511212 C136.275182,28.5633667 135.38993,28.0548098 132.931156,27.3793826 C129.279996,26.3599412 127.780477,25.3770201 127.780477,22.9127345 L127.780477,22.8570308 C127.780477,20.1608606 130.042997,18.3188669 133.188739,18.3188669 C134.780943,18.3188669 136.54828,18.7900204 138.079317,19.6034225 C138.525599,19.8666906 138.823553,20.316574 138.823553,20.8525012 C138.823553,21.5904545 138.202301,22.1888275 137.436132,22.1888275 C137.191871,22.1888275 136.960039,22.1294317 136.74494,22.0230007 C135.516812,21.3368984 134.261391,20.9638283 133.132121,20.9638283 C131.655183,20.9638283 130.725335,21.6676691 130.725335,22.6342964 L130.725335,22.6900001 C130.725335,23.4970612 131.533906,23.9688569 133.826725,24.6593738 C134.007301,24.713713 134.007301,24.713713 134.188608,24.7678916 C137.659192,25.7916674 139.191691,26.8619966 139.191691,29.2884776 L139.191691,29.344101 Z M159.012563,26.1980474 C159.012563,30.5837887 155.476345,34.1328512 150.914345,34.1328512 C146.376145,34.1328512 142.901012,30.6352384 142.901012,26.253751 L142.901012,26.1980474 C142.901012,21.8070085 146.413674,18.2632435 150.970962,18.2632435 C155.513873,18.2632435 159.012563,21.7661538 159.012563,26.1423437 L159.012563,26.1980474 Z M145.987375,26.1980474 C145.987375,29.0996149 148.15981,31.3765628 150.970962,31.3765628 C153.822974,31.3765628 155.926201,29.1464894 155.926201,26.253751 L155.926201,26.1980474 C155.926201,23.2968009 153.725822,20.9916801 150.914345,20.9916801 C148.07403,20.9916801 145.987375,23.2362011 145.987375,26.1423437 L145.987375,26.1980474 Z M176.358903,31.6997083 C174.716498,33.3146333 172.909926,34.1328512 170.537013,34.1328512 C166.097753,34.1328512 162.608648,30.593581 162.608648,26.253751 L162.608648,26.1980474 C162.608648,21.8297234 166.097753,18.2632435 170.537013,18.2632435 C172.833244,18.2632435 174.597089,19.0185339 176.188887,20.4481278 C176.480992,20.6873968 176.681551,21.0928136 176.681551,21.5207045 C176.681551,22.3282472 176.01814,22.9684382 175.209081,22.9684382 C174.844436,22.9684382 174.491083,22.8356002 174.213842,22.6077288 C172.994244,21.5057753 171.931096,20.9916801 170.508664,20.9916801 C167.801568,20.9916801 165.695092,23.2504882 165.695092,26.1423437 L165.695092,26.1980474 C165.695092,29.1133401 167.853962,31.3765628 170.650249,31.3765628 C172.055866,31.3765628 173.288705,30.8053994 174.427398,29.7448625 C174.6823,29.4942762 174.977492,29.344101 175.350666,29.344101 C176.115616,29.344101 176.766437,29.9966527 176.766437,30.7362113 C176.766437,31.0929075 176.612018,31.4508076 176.358903,31.6997083 Z M182.797658,16.3978125 C181.851888,16.3978125 181.098717,15.7370738 181.098717,14.8387517 L181.098717,14.4767581 C181.098717,13.5584501 181.841897,12.917617 182.797658,12.917617 C183.776651,12.917617 184.524949,13.5530724 184.524949,14.4767581 L184.524949,14.8387517 C184.524949,15.7423713 183.766416,16.3978125 182.797658,16.3978125 Z M182.826008,33.9379686 C181.968455,33.9379686 181.29692,33.2777115 181.29692,32.4345313 L181.29692,19.9337116 C181.29692,19.1163766 181.970242,18.4302742 182.797658,18.4302742 C183.655211,18.4302742 184.326746,19.0905313 184.326746,19.9337116 L184.326746,32.4345313 C184.326746,33.2800392 183.681449,33.9379686 182.826008,33.9379686 Z M199.617135,32.5180868 C199.617135,32.5180868 199.616729,32.4007399 199.617947,32.294951 C198.384946,33.439204 196.744897,34.1049994 194.746864,34.1049994 C191.488699,34.1049994 188.857228,32.1778449 188.857228,29.2049221 L188.857228,29.1492184 C188.857228,25.948344 191.480738,24.0821104 195.539676,24.0821104 C197.064702,24.0821104 198.290555,24.2369409 199.619328,24.5682734 C199.561492,22.2592196 198.251402,21.1030875 195.681261,21.1030875 C194.385793,21.1030875 193.205429,21.3703688 192.044723,21.8806112 C191.85903,21.9536521 191.664076,21.9939449 191.490567,21.9939449 C190.744787,21.9939449 190.103064,21.3882678 190.103064,20.6576186 C190.103064,20.0789906 190.479894,19.5695508 190.9542,19.3831763 C192.562894,18.7008464 194.090763,18.3745706 195.907814,18.3745706 C198.083011,18.3745706 199.775129,18.9416404 200.93681,20.0838868 C202.021321,21.1502028 202.561993,22.6550849 202.561993,24.5832026 L202.561993,32.4623831 C202.561993,33.2996238 201.924738,33.9379686 201.089523,33.9379686 C200.246186,33.9379686 199.617135,33.3194492 199.617135,32.5180868 Z M191.915322,29.1213666 C191.915322,30.5780097 193.27675,31.5714454 195.17162,31.5714454 C197.709512,31.5714454 199.645484,30.0698541 199.645484,28.0912499 L199.645484,27.0164258 C198.576894,26.7190453 197.270947,26.5043373 195.766229,26.5043373 C193.283898,26.5043373 191.915322,27.4823622 191.915322,29.0657432 L191.915322,29.1213666 Z M209.499262,33.9379686 C208.64179,33.9379686 207.970255,33.2777115 207.970255,32.4345313 L207.970255,14.0034374 C207.970255,13.1861023 208.643496,12.5 209.470994,12.5 C210.320505,12.5 211,13.1800825 211,14.0034374 L211,32.4345313 C211,33.2800392 210.354784,33.9379686 209.499262,33.9379686 Z" id="logo"></path>
                    </g>
                </g>
            </g>
        </g>
    </g>
</svg>